<?xml version="1.0" encoding="utf-8"?>
<!-- Generator: Adobe Illustrator 25.2.3, SVG Export Plug-In . SVG Version: 6.00 Build 0)  -->
<svg version="1.1" id="Layer_1" xmlns="http://www.w3.org/2000/svg" xmlns:xlink="http://www.w3.org/1999/xlink" x="0px" y="0px"
	 viewBox="0 0 1400 78" style="enable-background:new 0 0 1400 78;" xml:space="preserve">
<style type="text/css">
	.st0{opacity:0.7889;fill:none;stroke:#FFFFFF;stroke-width:2.2001;stroke-miterlimit:10;}
	.st1{opacity:0.7778;fill:none;stroke:#FFFFFF;stroke-width:2.158;stroke-miterlimit:10;}
	.st2{opacity:0.7667;fill:none;stroke:#FFFFFF;stroke-width:2.1159;stroke-miterlimit:10;}
	.st3{opacity:0.7556;fill:none;stroke:#FFFFFF;stroke-width:2.0738;stroke-miterlimit:10;}
	.st4{opacity:0.7444;fill:none;stroke:#FFFFFF;stroke-width:2.0317;stroke-miterlimit:10;}
	.st5{opacity:0.7333;fill:none;stroke:#FFFFFF;stroke-width:1.9896;stroke-miterlimit:10;}
	.st6{opacity:0.7222;fill:none;stroke:#FFFFFF;stroke-width:1.9475;stroke-miterlimit:10;}
	.st7{opacity:0.7111;fill:none;stroke:#FFFFFF;stroke-width:1.9054;stroke-miterlimit:10;}
	.st8{opacity:0.7;fill:none;stroke:#FFFFFF;stroke-width:1.8633;stroke-miterlimit:10;}
	.st9{opacity:0.6889;fill:none;stroke:#FFFFFF;stroke-width:1.8212;stroke-miterlimit:10;}
	.st10{opacity:0.6778;fill:none;stroke:#FFFFFF;stroke-width:1.7791;stroke-miterlimit:10;}
	.st11{opacity:0.6667;fill:none;stroke:#FFFFFF;stroke-width:1.737;stroke-miterlimit:10;}
	.st12{opacity:0.6556;fill:none;stroke:#FFFFFF;stroke-width:1.6949;stroke-miterlimit:10;}
	.st13{opacity:0.6444;fill:none;stroke:#FFFFFF;stroke-width:1.6528;stroke-miterlimit:10;}
	.st14{opacity:0.6333;fill:none;stroke:#FFFFFF;stroke-width:1.6107;stroke-miterlimit:10;}
</style>
<g>
	<path class="st0" d="M63.8,78C41.9,67,20.6,55.3,0,42.9"/>
	<path class="st1" d="M7.1,0c47.1,29.8,98.4,56,151.4,78"/>
	<path class="st2" d="M85.7,0C143.2,31.2,205,57.7,267.4,78"/>
	<path class="st3" d="M172.1,0c40.9,19.1,83.2,35.8,125.8,49.8c36.2,11.9,71.5,21.1,105.9,28.2"/>
	<path class="st4" d="M267.5,0c19.7,7.8,39.6,15,59.5,21.6c53.3,17.7,104.7,30,153.9,38.2c65,11,126,14.4,186.5,13
		c38-0.9,76.1-1.4,115.1,0.1c21.7,0.8,43.7,2.4,66.1,5.1"/>
	<path class="st5" d="M374.4,0c46.5,14.8,91.5,25.6,134.7,33.5c64.2,11.8,124.5,15.8,184.1,16c37.5,0.2,75,0.2,113.6,2.3
		C858.3,54.8,912,61.9,968.7,78"/>
	<path class="st6" d="M501.2,0c12.4,2.8,24.6,5.4,36.7,7.8c63.5,12.5,123,18,181.8,19.1c37,0.7,74,1.7,112.1,4.6
		c66.8,5.1,137.6,17.2,214,46.5"/>
	<path class="st7" d="M678,0c23.1,2.4,45.9,3.9,68.6,4.8c36.5,1.4,73,3.3,110.5,6.9c68.9,6.6,142.3,20.7,221.9,53.1
		c10.4,4.3,20.8,8.7,31.2,13.3"/>
	<path class="st8" d="M936,0c52.5,9.1,107.7,23.6,166.5,47.9c22.7,9.4,45.2,19.6,67.5,30.1"/>
	<path class="st9" d="M1036.6,0c29,8.3,58.9,18.6,89.8,31.5c31.4,13.2,62.5,27.7,93.3,42.6c2.7,1.3,5.3,2.6,7.9,3.8"/>
	<path class="st10" d="M1111,0c13,4.8,26.3,10,39.7,15.7c31.1,13.2,62,27.7,92.7,42.4c13.8,6.6,27.3,13.3,40.7,19.9"/>
	<path class="st11" d="M1174.9,0c0.1,0.1,0.2,0.1,0.3,0.2c30.8,13.3,61.5,27.7,92.1,42.2c24.8,11.9,49,23.7,72.4,35.6"/>
	<path class="st12" d="M1233.6,0c19.3,8.8,38.6,17.9,57.9,27c36,17.1,70.8,33.9,103.8,51"/>
	<path class="st13" d="M1290.4,0c8.5,4,16.9,7.9,25.4,11.9c28.9,13.6,57.1,27,84.2,40.3"/>
	<path class="st14" d="M1400,25c-17.4-8.2-35.2-16.5-53.3-25"/>
</g>
</svg>
