<?xml version="1.0" encoding="utf-8"?>
<!-- Generator: Adobe Illustrator 26.3.1, SVG Export Plug-In . SVG Version: 6.00 Build 0)  -->
<svg version="1.1" id="Layer_1" xmlns="http://www.w3.org/2000/svg" xmlns:xlink="http://www.w3.org/1999/xlink" x="0px" y="0px"
	 viewBox="0 0 1400 78" style="enable-background:new 0 0 1400 78;" xml:space="preserve">
<style type="text/css">
	.st0{opacity:0.95;}
	.st1{opacity:0.9667;fill:none;stroke:#FFFFFF;stroke-width:0.75;stroke-miterlimit:10;enable-background:new    ;}
	.st2{opacity:0.9556;fill:none;stroke:#FFFFFF;stroke-width:0.75;stroke-miterlimit:10;enable-background:new    ;}
	.st3{opacity:0.9444;fill:none;stroke:#FFFFFF;stroke-width:0.75;stroke-miterlimit:10;enable-background:new    ;}
	.st4{opacity:0.9333;fill:none;stroke:#FFFFFF;stroke-width:0.75;stroke-miterlimit:10;enable-background:new    ;}
	.st5{opacity:0.9222;fill:none;stroke:#FFFFFF;stroke-width:0.75;stroke-miterlimit:10;enable-background:new    ;}
	.st6{opacity:0.9111;fill:none;stroke:#FFFFFF;stroke-width:0.75;stroke-miterlimit:10;enable-background:new    ;}
	.st7{opacity:0.9;fill:none;stroke:#FFFFFF;stroke-width:0.75;stroke-miterlimit:10;enable-background:new    ;}
	.st8{opacity:0.8889;fill:none;stroke:#FFFFFF;stroke-width:0.75;stroke-miterlimit:10;enable-background:new    ;}
	.st9{opacity:0.8778;fill:none;stroke:#FFFFFF;stroke-width:0.75;stroke-miterlimit:10;enable-background:new    ;}
	.st10{opacity:0.8667;fill:none;stroke:#FFFFFF;stroke-width:0.75;stroke-miterlimit:10;enable-background:new    ;}
	.st11{opacity:0.8556;fill:none;stroke:#FFFFFF;stroke-width:0.75;stroke-miterlimit:10;enable-background:new    ;}
	.st12{opacity:0.8444;fill:none;stroke:#FFFFFF;stroke-width:0.75;stroke-miterlimit:10;enable-background:new    ;}
	.st13{opacity:0.8333;fill:none;stroke:#FFFFFF;stroke-width:0.75;stroke-miterlimit:10;enable-background:new    ;}
	.st14{opacity:0.8222;fill:none;stroke:#FFFFFF;stroke-width:0.75;stroke-miterlimit:10;enable-background:new    ;}
	.st15{opacity:0.8111;fill:none;stroke:#FFFFFF;stroke-width:0.75;stroke-miterlimit:10;enable-background:new    ;}
	.st16{opacity:0.8;fill:none;stroke:#FFFFFF;stroke-width:0.75;stroke-miterlimit:10;enable-background:new    ;}
	.st17{opacity:0.7889;fill:none;stroke:#FFFFFF;stroke-width:0.75;stroke-miterlimit:10;enable-background:new    ;}
</style>
<g class="st0">
	<path class="st1" d="M-32.7-0.6c17.6,4.1,35.1,8.1,52.9,11.8C198.5,48.7,386.6,47.7,560.4-0.6"/>
	<path class="st2" d="M501.9,77.2C590.4,62.8,676.7,37,758.2-0.6"/>
	<path class="st2" d="M-180-0.6C-93.1,26.3-5.7,50.6,82.9,68.2c16.9,3.4,33.8,6.4,50.8,9"/>
	<path class="st3" d="M-310.4-0.6c84.1,26.9,167.7,54.1,252,77.8"/>
	<path class="st3" d="M747.7,77.2c30.6-11.7,60.6-25,90.1-40c22.9-11.7,44.8-24.4,65.7-37.8"/>
	<path class="st4" d="M-460.9-0.6c87.2,23.7,173.2,51.1,258.9,77.8"/>
	<path class="st4" d="M906.4,77.2c41.5-22.9,79-49.1,113.7-77.8"/>
	<path class="st5" d="M-499.4,39.8c13.3,3,26.6,6.2,39.8,9.6c35.1,8.6,70,18,104.7,27.8"/>
	<path class="st5" d="M1029.1,77.2c12.8-9.4,25.3-19.2,37.3-29.3c18.6-15.6,36.2-31.8,53.1-48.7"/>
	<path class="st6" d="M1130.4,77.2c27.2-24.6,52.5-50.6,76.2-77.8"/>
	<path class="st7" d="M1284.7-0.6c-21,26.9-43,52.8-66.8,77.8"/>
	<path class="st8" d="M1355.6-0.6c-19.1,26.5-39,52.6-60.2,77.8"/>
	<path class="st9" d="M1420.9-0.6c-17.8,26.3-36.4,52.4-55.9,77.8"/>
	<path class="st10" d="M1482-0.6c-17.3,26.1-34.9,52.3-53.3,77.8"/>
	<path class="st11" d="M1540.2-0.6c-16.9,25.9-34.3,52.1-52.2,77.8"/>
	<path class="st12" d="M1596.7-0.6c-17.3,25.7-34.7,51.9-52.3,77.8"/>
	<path class="st13" d="M1598.8,77.2c6.4-9.4,12.9-18.6,19.3-28c10.3-15,21-29.7,31.7-44.4c1.3-1.9,2.8-3.8,4.1-5.6"/>
	<path class="st14" d="M1653.4,77.2c3-3.9,6-7.7,8.8-11.7c17.4-22.7,35.5-44.7,54-66.2"/>
	<path class="st15" d="M1786.6-0.6c-25.9,24.8-50.7,50.7-74.1,77.8"/>
	<path class="st16" d="M1779.6,77.2c28.5-27.3,58.5-53.2,90.4-77.8"/>
	<path class="st17" d="M1900.7,47c-13.9,9.8-27.6,19.9-40.9,30.3"/>
</g>
</svg>
