<svg xmlns="http://www.w3.org/2000/svg" width="1440" height="836" viewBox="0 0 1440 836">
    <g fill="none" fill-rule="evenodd" stroke="#FEFEFE" opacity=".149">
        <path stroke-width="3" d="M301 0c87.528 4.771 181.318 61.631 248.222 108.387 71.876 50.23 133.46 112.15 179.996 182.098 38.113 57.287 66.338 119.59 107.334 175.287 39.408 53.537 97.2 98.618 166.502 118.432 80.153 22.917 156.572-3.607 231.148-29.555 73.742-25.657 148.242-38.095 226.114-20.843 71.929 15.935 138.309 52.667 183.67 104.98 82.585 95.241 97.545 240.229 37.376 362.214" transform="translate(-50 -717)"/>
        <path stroke-width="2.958" d="M1682.187 1022c51.697-105.325 44.976-228.705-14.563-320.75-7.73-11.966-16.35-23.4-25.851-34.194-45.384-51.545-111.43-87.946-182.809-104.026-33.392-7.522-66.138-9.619-98.434-7.595-42.445 2.656-84.11 12.438-125.528 26.413-25.957 8.75-52.135 17.57-78.63 24.321-48.803 12.445-98.706 17.86-150.243 2.946-20.412-5.908-39.842-13.988-58.116-23.797-43.285-23.238-80.004-56.18-107.788-93.194-29.267-39.03-52.163-81.322-76.737-122.858-9.908-16.742-20.09-33.363-31.074-49.59-43.404-64.102-99.56-121.62-164.518-169.632-4.941-3.653-9.933-7.25-14.975-10.792C486.448 92.529 393.88 35.585 308 30" transform="translate(-50 -717)"/>
        <path stroke-width="2.916" d="M1682.955 1041c50.181-102.591 42.328-223.258-17.562-313.695-7.765-11.756-16.409-23-25.917-33.623-45.436-50.724-111.192-86.758-182.072-102.966-33.157-7.581-65.651-9.862-97.664-8.12-42.075 2.283-83.314 11.53-124.3 24.894-25.692 8.363-51.597 16.79-77.829 23.193-48.31 11.81-97.769 16.718-148.929 1.76-20.27-5.932-39.589-13.977-57.788-23.694-43.097-23.014-79.756-55.395-107.63-91.74-29.337-38.325-52.41-79.813-77.13-120.644-9.967-16.457-20.206-32.81-31.231-48.793-43.592-63.133-99.698-120.04-164.237-167.817-4.911-3.636-9.87-7.22-14.877-10.749C489.701 122.363 398.29 65.391 314 59" transform="translate(-50 -717)"/>
        <path stroke-width="2.874" d="M1682.692 1059c48.664-99.858 39.678-217.814-20.56-306.643-7.802-11.548-16.468-22.6-25.983-33.051-45.49-49.905-110.954-85.571-181.332-101.908-32.921-7.64-65.162-10.104-96.89-8.644-41.705 1.909-82.516 10.62-123.072 23.376-25.425 7.975-51.057 16.012-77.024 22.066-47.817 11.175-96.83 15.576-147.61.574-20.128-5.955-39.337-13.965-57.462-23.589-42.906-22.79-79.504-54.613-107.468-90.286-29.405-37.621-52.658-78.305-77.52-118.43-10.027-16.174-20.323-32.26-31.39-47.997-43.778-62.167-99.832-118.46-163.952-166.004-4.88-3.619-9.806-7.188-14.777-10.705C491.95 151.196 401.696 94.197 319 87" transform="translate(-50 -717)"/>
        <path stroke-width="2.832" d="M1681.418 1077c47.112-97.227 37-212.594-23.544-299.906-7.83-11.351-16.512-22.224-26.028-32.514-45.508-49.137-110.633-84.472-180.457-100.954-32.66-7.707-64.624-10.357-96.045-9.178-41.303 1.538-81.657 9.724-121.752 21.883-25.139 7.596-50.48 15.25-76.162 20.962-47.288 10.553-95.82 14.45-146.184-.612-19.97-5.983-39.054-13.967-57.09-23.507-42.685-22.59-79.195-53.888-107.229-88.926-29.451-36.956-52.865-76.879-77.85-116.34-10.081-15.905-20.426-31.741-31.526-47.249-43.932-61.263-99.894-117.003-163.545-164.36-4.846-3.607-9.736-7.165-14.668-10.673C494.072 179.095 405.043 122.01 324 114" transform="translate(-50 -717)"/>
        <path stroke-width="2.79" d="M1679.067 1094c45.626-94.497 34.374-207.153-26.56-292.858-7.872-11.143-16.58-21.825-26.11-31.944-45.591-48.316-110.47-83.285-179.838-99.894-32.447-7.766-64.18-10.6-95.337-9.702-40.96 1.164-80.914 8.816-120.605 20.367-24.888 7.208-49.972 14.472-75.407 19.835-46.827 9.919-94.945 13.31-144.965-1.797-19.841-6.005-38.826-13.954-56.801-23.402-42.523-22.365-78.996-53.104-107.14-87.473-29.539-36.25-53.147-75.37-78.293-114.126-10.147-15.621-20.555-31.19-31.705-46.453-44.148-60.296-100.096-115.425-163.37-162.547-4.819-3.59-9.679-7.133-14.578-10.63C493.434 206.927 405.505 149.817 326 141" transform="translate(-50 -717)"/>
        <path stroke-width="2.747" d="M1677.703 1110c44.105-91.865 31.72-201.93-29.56-286.116-7.906-10.947-16.636-21.45-26.173-31.407-45.64-47.548-110.222-82.185-179.084-98.94-32.208-7.833-63.685-10.853-94.556-10.236-40.586.792-80.109 7.917-119.366 18.87-24.62 6.83-49.429 13.71-74.597 18.731-46.33 9.295-93.999 12.184-143.636-2.983-19.697-6.035-38.57-13.957-56.469-23.322-42.329-22.165-78.738-52.378-106.97-86.112-29.606-35.585-53.39-73.942-78.678-112.034-10.207-15.353-20.671-30.671-31.862-45.704-44.33-59.393-100.223-113.968-163.072-160.904-4.788-3.577-9.615-7.11-14.479-10.598C494.67 232.827 407.906 175.63 330 166" transform="translate(-50 -717)"/>
        <path stroke-width="2.705" d="M1673.353 1126c42.583-89.231 28.883-196.582-32.559-279.372-7.967-10.733-16.694-21.072-26.237-30.867-45.69-46.78-109.977-81.087-178.332-97.986-31.97-7.901-63.192-11.107-93.777-10.771-40.213.418-79.305 7.018-118.128 17.374-24.353 6.448-48.886 12.946-73.787 17.624-45.834 8.67-93.053 11.056-142.309-4.172-19.553-6.063-38.314-13.959-56.138-23.242-42.135-21.963-78.482-51.65-106.802-84.749-29.673-34.918-53.634-72.513-79.063-109.94-10.266-15.085-20.787-30.153-32.018-44.957-44.515-58.489-100.353-112.51-162.777-159.26-4.757-3.565-9.55-7.087-14.379-10.566C492.905 258.73 407.307 201.446 331 191" transform="translate(-50 -717)"/>
        <path stroke-width="2.663" d="M1668.92 1139c41.06-86.408 26.204-190.92-35.557-272.032-8.005-10.513-16.75-20.652-26.3-30.265-45.737-45.91-109.724-79.814-177.568-96.822-31.73-7.951-62.696-11.337-92.991-11.282-39.838.045-78.498 6.104-116.884 15.842-24.083 6.054-48.34 12.155-72.973 16.48-45.334 8.03-92.102 9.907-140.972-5.35-19.408-6.078-38.056-13.93-55.802-23.11-41.94-21.717-78.222-50.814-106.629-83.207-29.737-34.178-53.874-70.93-79.443-107.613-10.326-14.784-20.901-29.57-32.173-44.112-44.695-57.461-100.476-110.813-162.472-157.277-4.725-3.544-9.485-7.048-14.277-10.511C491.132 283.485 406.704 226.238 332 215" transform="translate(-50 -717)"/>
        <path stroke-width="2.621" d="M1663.447 1153c39.535-83.774 23.526-185.674-38.553-265.286-8.042-10.313-16.806-20.275-26.36-29.728-45.783-45.141-109.47-78.714-176.801-95.867-31.489-8.019-62.196-11.59-92.203-11.818-39.46-.326-77.686 5.205-115.635 14.345-23.813 5.675-47.793 11.392-72.157 15.375-44.833 7.404-91.148 8.779-139.631-6.538-19.262-6.108-37.797-13.934-55.466-23.031-41.744-21.516-78.031-50.028-106.451-81.845-29.879-33.45-54.113-69.501-79.822-105.518-10.383-14.517-21.014-29.052-32.326-43.365-44.875-56.556-100.595-109.355-162.161-155.634-4.695-3.53-9.42-7.024-14.177-10.478C488.354 307.387 405.099 250.053 332 238" transform="translate(-50 -717)"/>
        <path stroke-width="2.579" d="M1656.934 1165c38.01-81.049 20.848-180.224-41.549-258.25-8.078-10.103-16.86-19.877-26.42-29.158-45.827-44.323-109.21-77.527-176.027-94.808-31.246-8.077-61.696-11.832-91.412-12.34-39.082-.698-76.873 4.3-114.383 12.834-23.542 5.288-47.244 10.615-71.338 14.25-44.332 6.773-90.192 7.642-138.287-7.718-19.116-6.13-37.536-13.922-55.128-22.926-41.545-21.292-77.772-49.24-106.27-80.394-29.948-32.74-54.35-67.996-80.197-103.308-10.442-14.234-21.127-28.502-32.48-42.57-45.053-55.59-100.711-107.778-161.845-153.82-4.663-3.514-9.355-6.993-14.075-10.435C484.572 330.214 402.492 272.857 331 260" transform="translate(-50 -717)"/>
        <path stroke-width="2.537" d="M1650.38 1178c36.482-78.412 18.17-174.974-44.543-251.5-8.115-9.903-16.914-19.5-26.48-28.619-45.869-43.554-108.947-76.428-175.247-93.854-31.004-8.145-61.193-12.087-90.619-12.876-38.702-1.071-76.057 3.4-113.128 11.335-23.27 4.908-46.693 9.851-70.517 13.143-43.827 6.148-89.232 6.513-136.938-8.908-18.97-6.159-37.274-13.924-54.787-22.845-41.346-21.091-77.51-48.505-106.086-79.031-30.018-32.066-54.586-66.567-80.57-101.214-10.5-13.965-21.24-27.982-32.63-41.82-45.231-54.687-100.827-106.32-161.527-152.178-4.63-3.5-9.289-6.97-13.973-10.403C480.785 353.12 399.883 295.673 330 282" transform="translate(-50 -717)"/>
        <path stroke-width="2.495" d="M1642.782 1189c34.955-75.774 15.494-169.719-47.534-244.744-8.151-9.704-16.967-19.123-26.537-28.081-45.912-42.784-108.683-75.327-174.464-92.9-30.76-8.213-60.688-12.341-89.822-13.412-38.322-1.445-75.239 2.498-111.87 9.835-22.996 4.526-46.14 9.087-69.693 12.035-43.323 5.521-88.27 5.382-135.584-10.1-18.823-6.188-37.012-13.927-54.446-22.766-41.146-20.89-77.246-47.77-105.899-77.667-30.084-31.392-54.82-65.136-80.94-99.118-10.558-13.696-21.352-27.462-32.781-41.071-45.406-53.782-100.936-104.861-161.2-150.534-4.6-3.488-9.224-6.946-13.87-10.37C475.993 374.024 396.272 316.49 328 302" transform="translate(-50 -717)"/>
        <path stroke-width="2.453" d="M1634.14 1199c33.426-73.05 12.818-164.272-50.522-237.713-8.188-9.493-17.02-18.724-26.596-27.51-45.95-41.967-108.412-74.142-173.672-91.842-30.515-8.27-60.182-12.582-89.023-13.932-37.94-1.818-74.419 1.593-110.607 8.323-22.724 4.14-45.588 8.312-68.868 10.912-42.818 4.89-87.306 4.247-134.228-11.278-18.674-6.21-36.748-13.915-54.102-22.66-40.943-20.667-76.978-46.983-105.707-76.218-30.151-30.681-55.051-63.631-81.308-96.91-10.615-13.412-21.462-26.912-32.93-40.275-45.58-52.816-101.043-103.285-160.869-148.721-4.567-3.471-9.157-6.914-13.767-10.327C470.197 394.849 391.658 337.292 325 322" transform="translate(-50 -717)"/>
        <path stroke-width="2.411" d="M1625.452 1209c31.897-70.41 10.145-159.012-53.508-230.952-8.222-9.294-17.072-18.347-26.652-26.972-45.989-41.196-108.139-73.04-172.875-90.887-30.269-8.339-59.674-12.837-88.22-14.47-37.558-2.191-73.583.762-109.342 6.822-22.441 3.804-45.033 7.545-68.04 9.802-42.31 4.264-86.339 3.115-132.867-12.471-18.525-6.24-36.482-13.918-53.756-22.581-40.74-20.465-76.708-46.247-105.513-74.853-30.214-30.007-55.28-62.2-81.672-94.811-10.67-13.145-21.57-26.394-33.078-39.527-45.75-51.911-101.145-101.826-160.53-147.078-4.536-3.458-9.091-6.89-13.665-10.295C464.397 414.757 387.044 357.11 322 341" transform="translate(-50 -717)"/>
        <path stroke-width="2.368" d="M1616.706 1218c30.392-67.688 7.48-153.57-56.532-223.926-8.264-9.082-17.137-17.948-26.728-26.402-46.06-40.378-107.944-71.855-172.204-89.828-30.044-8.396-59.207-13.077-87.482-14.99-37.2-2.563-72.813-.137-108.154 5.312-22.183 3.42-44.51 6.771-67.263 8.681-41.832 3.633-85.431 1.98-131.599-13.65-18.39-6.262-36.244-13.904-53.45-22.474-40.566-20.242-76.492-45.46-105.394-73.403-30.3-29.297-55.55-60.696-82.095-92.605-10.736-12.86-21.697-25.843-33.25-38.732-45.956-50.946-101.321-100.249-160.31-145.264-4.507-3.442-9.031-6.86-13.57-10.251C457.7 434.58 381.474 376.91 318 360" transform="translate(-50 -717)"/>
        <path stroke-width="2.326" d="M1606.924 1228c28.86-65.045 4.809-148.305-59.513-217.16-8.299-8.882-17.189-17.57-26.783-25.863-46.094-39.607-107.662-70.753-171.395-88.873-29.796-8.465-58.694-13.333-86.673-15.53-36.815-2.936-71.986-1.034-106.88 3.81-21.909 3.042-43.953 6.004-66.43 7.57-41.322 3.006-84.458.847-130.229-14.844-18.24-6.292-35.975-13.908-53.1-22.396-40.36-20.04-76.216-44.723-105.191-72.038-30.362-28.621-55.775-59.263-82.454-90.505-10.791-12.592-21.805-25.323-33.395-37.982-46.124-50.04-101.417-98.79-159.962-143.62-4.474-3.43-8.963-6.837-13.466-10.22C450.89 454.491 375.855 396.73 314 379" transform="translate(-50 -717)"/>
        <path stroke-width="2.284" d="M1596.092 1236c27.329-62.325 2.14-142.866-62.49-210.137-8.333-8.673-17.239-17.173-26.836-25.294-46.127-38.79-107.377-69.57-170.58-87.815-29.546-8.522-58.179-13.573-85.86-16.049-36.428-3.308-71.157-1.932-105.604 2.302-21.632 2.66-43.393 5.23-65.596 6.45-40.81 2.375-83.48-.286-128.852-16.021-18.09-6.314-35.706-13.895-52.75-22.29-40.15-19.816-75.934-43.935-104.984-70.589-30.42-27.912-55.997-57.76-82.807-88.3-10.847-12.307-21.912-24.772-33.54-37.187-46.29-49.076-101.507-97.214-159.606-141.808-4.441-3.412-8.896-6.805-13.361-10.175C443.076 473.313 369.234 415.53 309 397" transform="translate(-50 -717)"/>
        <path stroke-width="2.242" d="M1585.2 1244c25.818-59.68-.525-137.598-65.512-203.365-8.373-8.473-17.302-16.796-26.91-24.755-46.193-38.019-107.169-68.467-169.887-86.86-29.32-8.59-57.707-13.83-85.112-16.588-36.068-3.683-70.38-2.833-104.403.797-21.373 2.28-42.866 4.462-64.81 5.336-40.328 1.748-82.565-1.42-127.57-17.217-17.953-6.342-35.464-13.898-52.437-22.21-39.972-19.616-75.71-43.2-104.854-69.223-30.503-27.236-56.261-56.327-83.223-86.2-10.91-12.038-22.035-24.252-33.707-36.436-46.491-48.17-101.674-95.754-159.369-140.164-4.412-3.4-8.842-6.773-13.266-10.144C434.26 491.34 361.657 433.353 303 414" transform="translate(-50 -717)"/>
        <path stroke-width="2.2" d="M1573.265 1250c24.285-56.962-3.19-132.162-68.482-196.348-8.405-8.263-17.35-16.398-26.96-24.186-46.222-37.202-106.875-67.283-169.058-85.8-29.068-8.65-57.188-14.07-84.294-17.108-35.678-4.053-69.545-3.73-103.118-.71-21.096 1.898-42.304 3.69-63.97 4.218-39.814 1.118-81.583-2.553-126.185-18.393-17.801-6.364-35.191-13.884-52.081-22.103-39.761-19.392-75.423-42.412-104.639-67.775-30.559-26.527-56.48-54.825-83.57-83.995-10.965-11.755-22.14-23.703-33.849-35.643-46.653-47.205-101.755-94.178-159-138.35-4.378-3.383-8.774-6.742-13.16-10.1C425.434 508.163 354.032 450.15 297 430" transform="translate(-50 -717)"/>
        <path stroke-width="2.158" d="M1562.27 1258c22.77-54.247-5.856-126.732-71.502-189.336-8.444-8.053-17.412-16-27.031-23.618-46.285-36.385-106.66-66.098-168.353-84.741-28.838-8.707-56.71-14.309-83.537-17.626-35.315-4.423-68.762-4.626-101.91-2.215-20.834 1.517-41.772 2.876-63.177 3.1-39.33.413-80.66-3.683-124.893-19.566-17.662-6.386-34.945-13.87-51.764-21.997-39.58-19.167-75.19-41.625-104.5-66.326-30.637-25.82-56.74-53.325-83.979-81.791-11.027-11.473-22.237-23.178-34.015-34.85-46.75-46.332-101.913-92.603-158.749-136.538-4.349-3.366-8.712-6.71-13.063-10.057C416.702 526.985 346.449 468.948 291 448" transform="translate(-50 -717)"/>
        <path stroke-width="2.116" d="M1549.226 1264c21.237-51.599-8.515-121.458-74.462-182.558-8.476-7.853-17.459-15.623-27.08-23.078-46.31-35.614-106.355-64.996-167.51-83.787-28.583-8.776-56.185-14.565-82.711-18.166-34.922-4.799-67.922-5.527-100.617-3.721-20.555 1.136-41.205 2.105-62.333 1.985-38.81-.219-79.67-4.819-123.497-20.763-17.508-6.416-34.67-13.875-51.405-21.919-39.363-18.966-74.894-40.889-104.274-64.96-30.69-25.143-56.952-51.89-84.318-79.69-11.081-11.203-22.34-22.657-34.153-34.098-46.905-45.43-101.987-91.143-158.367-134.894-4.316-3.353-8.643-6.686-12.956-10.025C406.867 542.904 337.82 484.77 284 463" transform="translate(-50 -717)"/>
        <path stroke-width="2.074" d="M1537.12 1269c19.72-48.887-11.177-116.033-77.476-175.552-8.514-7.643-17.52-15.225-27.149-22.51-46.368-34.797-106.13-63.812-166.79-82.728-28.35-8.832-55.703-14.803-81.948-18.683-34.555-5.168-67.134-6.423-99.398-5.224-20.293.754-40.67 1.332-61.535.87-38.32-.85-78.74-5.95-122.194-21.936-17.368-6.438-34.42-13.861-51.083-21.812-39.179-18.743-74.655-40.103-104.127-63.513-30.764-24.436-57.207-50.39-84.72-77.488-11.143-10.92-22.46-22.11-34.316-33.305-47.096-44.47-102.135-89.568-158.102-133.082-4.286-3.336-8.581-6.654-12.859-9.98C397.123 558.722 329.233 500.565 277 478" transform="translate(-50 -717)"/>
        <path stroke-width="2.032" d="M1523.957 1275c18.202-46.236-13.84-110.755-80.488-168.767-8.551-7.444-17.579-14.848-27.217-21.97-46.424-34.026-105.9-62.71-166.062-81.774-28.117-8.901-55.219-15.06-81.18-19.224-34.188-5.545-66.343-7.327-98.177-6.734-20.028.373-40.13.562-60.734-.246-37.826-1.482-77.806-7.086-120.883-23.135-17.227-6.468-34.17-13.865-50.76-21.734-38.99-18.542-74.41-39.366-103.975-62.145-30.837-23.76-57.458-48.954-85.118-75.384-11.203-10.65-22.577-21.59-34.477-32.554-47.286-43.568-102.28-88.107-157.83-131.438-4.256-3.323-8.52-6.63-12.762-9.95C386.374 574.644 319.642 516.392 269 493" transform="translate(-50 -717)"/>
        <path stroke-width="1.99" d="M1510.736 1280c16.682-43.525-16.501-105.335-83.499-161.767-8.588-7.233-17.621-14.469-27.282-21.401-46.407-33.3-105.667-61.527-165.328-80.715-27.882-8.959-54.73-15.3-80.41-19.74-33.816-5.915-65.546-8.221-96.947-8.235-19.764-.008-39.59-.21-59.93-1.362-37.332-2.111-76.868-8.214-119.568-24.305-17.085-6.488-33.918-13.851-50.432-21.626-38.803-18.318-74.165-38.58-103.819-60.7-30.908-23.053-57.709-47.454-85.513-73.183-11.264-10.369-22.695-21.043-34.638-31.761-47.472-42.61-102.42-86.534-157.55-129.626-4.226-3.306-8.456-6.599-12.663-9.905C375.617 590.459 310.047 532.185 261 508" transform="translate(-50 -717)"/>
        <path stroke-width="1.947" d="M1496.454 1285c15.162-40.872-19.16-100.052-86.505-154.976-8.624-7.033-17.68-14.09-27.348-20.86-46.458-32.531-105.427-60.424-164.584-79.762-27.645-9.027-54.241-15.556-79.634-20.282-33.445-6.29-64.75-9.126-95.715-9.746-19.498-.39-39.049-.982-59.123-2.478-36.835-2.745-75.927-9.354-118.246-25.508-16.943-6.518-33.664-13.855-50.104-21.548-38.612-18.117-73.913-37.844-103.657-59.33-30.977-22.377-57.956-46.018-85.903-71.078-11.325-10.1-22.812-20.523-34.797-31.01-47.658-41.705-102.554-85.072-157.265-127.981-4.194-3.294-8.391-6.576-12.563-9.874C363.856 605.382 299.451 547.011 252 522" transform="translate(-50 -717)"/>
        <path stroke-width="1.905" d="M1483.111 1290c13.64-38.215-21.818-94.764-89.508-148.178-8.66-6.833-17.737-13.713-27.412-20.32-46.508-31.76-105.182-59.32-163.833-78.806-27.407-9.097-53.748-15.816-78.855-20.826-33.071-6.668-63.948-10.034-94.477-11.26-19.231-.772-38.504-1.756-58.313-3.597-36.337-3.378-74.981-10.494-116.919-26.711-16.798-6.548-33.408-13.86-49.772-21.47-38.419-17.916-73.658-37.108-103.49-57.961-31.044-21.7-58.2-44.58-86.29-68.971-11.384-9.83-22.927-20.002-34.953-30.258-47.842-40.8-102.685-83.609-156.97-126.336-4.164-3.282-8.329-6.553-12.464-9.843C353.088 620.306 289.852 561.838 244 536" transform="translate(-50 -717)"/>
        <path stroke-width="1.863" d="M1468.705 1292c12.116-35.46-24.473-89.23-92.507-140.993-8.695-6.615-17.793-13.3-27.474-19.726-46.556-30.906-104.932-58.06-163.074-77.643-27.167-9.142-53.252-16.031-78.071-21.313-32.696-7.026-63.144-10.913-93.234-12.741-18.964-1.152-37.958-2.523-57.5-4.705-35.836-4-74.033-11.605-115.586-27.842-16.654-6.56-33.15-13.827-49.439-21.334-38.223-17.668-73.397-36.275-103.318-56.44-31.108-20.966-58.441-43.025-86.671-66.682-11.443-9.534-23.042-19.428-35.109-29.426-48.023-39.788-102.81-81.925-156.668-124.357-4.133-3.26-8.263-6.512-12.363-9.785C341.315 634.005 279.251 575.595 235 549" transform="translate(-50 -717)"/>
        <path stroke-width="1.821" d="M1453.236 1298c10.584-32.847-27.104-84.058-95.424-134.378-8.722-6.424-17.834-12.939-27.513-19.211-46.563-30.177-104.591-57.033-162.174-76.794-26.904-9.223-52.71-16.311-77.22-21.885-32.294-7.414-62.286-11.837-91.912-14.275-18.68-1.537-37.379-3.3-56.638-5.83-35.305-4.641-73.02-12.765-114.153-29.087-16.495-6.6-32.865-13.85-49.063-21.284-37.996-17.492-73.073-35.588-103.056-55.146-31.147-20.318-58.633-41.643-86.979-64.663-11.492-9.277-23.136-18.933-35.233-28.713-48.163-38.936-102.846-80.572-156.23-122.88-4.098-3.25-8.192-6.497-12.252-9.767C329.452 649.047 268.61 590.46 226 563" transform="translate(-50 -717)"/>
        <path stroke-width="1.779" d="M1439.697 1301c9.069-30.142-29.775-78.651-98.49-127.39-8.762-6.215-17.902-12.542-27.594-18.644-46.645-29.364-104.416-55.85-161.53-75.734-26.683-9.28-52.251-16.549-76.49-22.4-31.942-7.782-61.527-12.73-90.736-15.77-18.426-1.92-36.858-4.07-55.865-6.945-34.828-5.267-72.12-13.888-112.9-30.253-16.361-6.62-32.63-13.835-48.762-21.177-37.829-17.267-72.865-34.803-102.958-53.7-31.232-19.614-58.915-40.147-87.422-62.467-11.56-8.994-23.267-18.385-35.414-27.92-48.379-37.978-103.043-79-156.039-121.068-4.069-3.235-8.133-6.466-12.16-9.723C317.754 662.856 258.04 604.252 217 576" transform="translate(-50 -717)"/>
        <path stroke-width="1.737" d="M1424.092 1305c7.545-27.479-32.42-73.354-101.471-120.577-8.797-6.015-17.956-12.163-27.653-18.102-46.686-28.592-104.149-54.745-160.744-74.78-26.44-9.35-51.747-16.808-75.695-22.945-31.561-8.16-60.713-13.642-89.478-17.29-18.156-2.303-36.306-4.844-55.042-8.066-34.323-5.901-71.161-15.033-111.55-31.461-16.214-6.651-32.367-13.84-48.42-21.1-37.628-17.066-72.592-34.067-102.768-52.33-31.291-18.936-59.148-38.704-87.79-60.354-11.617-8.725-23.379-17.865-35.563-27.167-48.554-37.071-103.152-77.536-155.712-119.423-4.037-3.222-8.067-6.443-12.057-9.692C304.965 676.785 246.432 618.083 207 589" transform="translate(-50 -717)"/>
        <path stroke-width="1.695" d="M1410.417 1308c6.026-24.777-35.09-67.956-104.533-113.595-8.835-5.807-18.022-11.768-27.73-17.536-46.763-27.779-103.962-53.563-160.082-73.72-26.216-9.407-51.282-17.045-74.957-23.46-31.205-8.528-59.946-14.534-88.289-18.784-17.9-2.685-35.781-5.611-54.262-9.176-33.842-6.528-70.254-16.157-110.282-32.626-16.08-6.673-32.129-13.826-48.116-20.992-37.455-16.843-72.374-33.285-102.658-50.886-31.373-18.233-59.425-37.21-88.225-58.16-11.683-8.441-23.508-17.317-35.74-26.375-48.766-36.113-103.339-75.964-155.503-117.611-4.009-3.205-8.008-6.412-11.964-9.647C293.25 690.592 235.853 631.873 198 602" transform="translate(-50 -717)"/>
        <path stroke-width="1.653" d="M1393.673 1311c4.498-22.078-37.698-62.564-107.414-106.62-8.859-5.6-18.059-11.373-27.763-16.97-46.76-26.967-103.596-52.382-159.144-72.662-25.949-9.462-50.73-17.28-74.092-23.971-30.796-8.894-59.076-15.426-86.949-20.277-17.614-3.066-35.195-6.378-53.39-10.285-33.303-7.152-69.227-17.28-108.827-33.788-15.918-6.694-31.836-13.812-47.73-20.885-37.218-16.618-72.031-32.502-102.372-49.443-31.4-17.531-59.6-35.715-88.51-55.966-11.728-8.16-23.596-16.77-35.855-25.584-48.895-35.155-103.349-74.392-155.028-115.8-3.974-3.188-7.935-6.38-11.851-9.602C280.376 704.396 224.211 645.66 188 615" transform="translate(-50 -717)"/>
        <path stroke-width="1.611" d="M1379.856 1314c2.977-19.411-40.362-57.262-110.465-99.799-8.897-5.399-18.123-10.993-27.839-16.427-46.831-26.194-103.397-51.276-158.462-71.707-25.722-9.533-50.26-17.542-73.345-24.52-30.435-9.272-58.302-16.34-85.749-21.797-17.355-3.45-34.666-7.154-52.603-11.41-32.819-7.786-68.312-18.424-107.547-34.999-15.78-6.724-31.594-13.816-47.418-20.806-37.043-16.418-71.805-31.768-102.25-48.071-31.479-16.855-59.872-34.274-88.936-53.853-11.794-7.89-23.723-16.248-36.028-24.83-49.101-34.247-103.524-72.928-154.802-114.155-3.944-3.175-7.873-6.356-11.756-9.572C268.65 717.327 213.627 658.494 179 627" transform="translate(-50 -717)"/>
        <path stroke-width="1.569" d="M1364.965 1317c1.455-16.716-43.025-51.88-113.511-92.833-8.935-5.19-18.188-10.597-27.913-15.86-46.902-25.383-103.192-50.097-157.772-70.648-25.493-9.59-49.785-17.777-72.592-25.03-30.074-9.64-57.524-17.232-84.543-23.288-17.096-3.833-34.135-7.92-51.813-12.517-32.332-8.41-67.392-19.545-106.259-36.16-15.643-6.744-31.35-13.8-47.105-20.698-36.864-16.194-71.572-30.987-102.123-46.629-31.553-16.156-60.138-32.78-89.355-51.66-11.858-7.608-23.848-15.704-36.2-24.042-49.306-33.288-103.693-71.356-154.566-112.342-3.914-3.159-7.812-6.325-11.66-9.527C255.916 731.128 202.04 672.28 169 640" transform="translate(-50 -717)"/>
        <path stroke-width="1.526" d="M1349 1320c-.068-14.044-45.65-46.574-116.457-86.002-8.964-4.991-18.236-10.217-27.963-15.318-46.928-24.608-102.893-48.99-156.938-69.694-25.242-9.66-49.266-18.038-71.775-25.578-29.684-10.02-56.693-18.149-83.26-24.812-16.822-4.22-33.572-8.695-50.976-13.643-31.816-9.045-66.41-20.694-104.876-37.373-15.491-6.776-31.078-13.807-46.75-20.621-36.651-15.994-71.275-30.253-101.902-45.256-31.6-15.48-60.352-31.336-89.696-49.546-11.91-7.337-23.952-15.18-36.337-23.286-49.467-32.379-103.77-69.89-154.192-110.697-3.881-3.146-7.744-6.302-11.554-9.496C243.105 744.062 190.424 685.115 159 652" transform="translate(-50 -717)"/>
        <path stroke-width="1.484" d="M1334 1323c-1.591-11.352-48.308-41.2-119.497-79.043-9-4.785-18.298-9.822-28.034-14.753-46.994-23.796-102.678-47.81-156.233-68.635-25.01-9.715-48.786-18.272-71.015-26.087-29.32-10.386-55.91-19.04-82.047-26.3-16.56-4.6-33.036-9.459-50.18-14.748-31.325-9.667-65.483-21.813-103.578-38.531-15.352-6.797-30.831-13.792-46.43-20.514-36.47-15.769-71.037-29.473-101.766-43.814-31.671-14.78-60.614-29.845-90.109-47.356-11.974-7.056-24.075-14.633-36.505-22.496-49.668-31.421-103.93-68.321-153.942-108.886-3.852-3.129-7.682-6.27-11.458-9.452C230.362 757.859 178.832 698.9 149 665" transform="translate(-50 -717)"/>
        <path stroke-width="1.442" d="M1319 1326c-3.116-8.677-50.968-35.892-122.538-72.204-9.037-4.585-18.361-9.441-28.107-14.209-47.06-23.02-102.463-46.703-155.527-67.68-24.779-9.786-48.307-18.535-70.255-26.638-28.954-10.766-55.125-19.959-80.832-27.827-16.299-4.988-32.501-10.237-49.384-15.876-30.835-10.302-64.557-22.963-102.28-39.748-15.212-6.827-30.584-13.797-46.113-20.436-36.287-15.569-70.796-28.739-101.628-42.44-31.743-14.105-60.877-28.399-90.522-45.238-12.038-6.785-24.2-14.11-36.673-21.741-49.87-30.51-104.091-66.855-153.693-107.24-3.822-3.116-7.62-6.248-11.361-9.421C217.618 770.796 167.239 711.738 139 677" transform="translate(-50 -717)"/>
        <path stroke-width="1.4" d="M1303 1329c-4.633-5.989-53.537-30.528-125.37-65.253-9.057-4.378-18.392-9.047-28.13-13.644-47.047-22.209-102.075-45.523-154.557-66.621-24.506-9.842-47.746-18.769-69.378-27.147-28.54-11.13-54.247-20.848-79.48-29.311-16.01-5.37-31.911-10.999-48.505-16.98-30.293-10.922-63.52-24.08-100.808-40.904-15.047-6.847-30.286-13.78-45.717-20.327-36.044-15.344-70.436-27.961-101.32-41-31.759-13.408-61.035-26.91-90.78-43.05-12.08-6.504-24.282-13.565-36.778-20.953-49.988-29.552-104.076-65.285-153.184-105.429-3.786-3.1-7.545-6.216-11.245-9.376C205.744 784.589 156.6 725.52 130 690" transform="translate(-50 -717)"/>
        <path stroke-width="1.358" d="M1288 1331c-6.157-3.304-56.194-25.174-128.41-58.31-9.094-4.174-18.456-8.653-28.203-13.08-47.113-21.398-101.86-44.345-153.851-65.563-24.275-9.897-47.267-19.002-68.619-27.654-28.174-11.494-53.462-21.736-78.266-30.793-15.748-5.75-31.375-11.758-47.708-18.082-29.802-11.539-62.593-25.192-99.51-42.055-14.908-6.868-30.039-13.765-45.399-20.22-35.861-15.119-70.196-27.184-101.182-39.56-31.83-12.713-61.298-25.421-91.194-40.865-12.144-6.223-24.406-13.02-36.946-20.164-50.19-28.595-104.236-63.717-152.934-103.619-3.756-3.082-7.483-6.183-11.15-9.33C193.002 797.377 145.009 738.301 120 702" transform="translate(-50 -717)"/>
        <path stroke-width="1.316" d="M1273 1336c-7.682-.626-58.853-19.894-131.453-51.544-9.13-3.98-18.52-8.285-28.276-12.556-47.18-20.653-101.645-43.307-153.145-64.713-24.044-9.983-46.788-19.295-67.859-28.25-27.81-11.896-52.677-22.697-77.05-32.376-15.487-6.15-30.84-12.557-46.912-19.244-29.313-12.194-61.666-26.388-98.211-43.344-14.769-6.91-29.792-13.793-45.081-20.175-35.68-14.943-69.955-26.495-101.045-38.246-31.9-12.059-61.56-24.013-91.608-38.808-12.207-5.96-24.53-12.515-37.114-19.439-50.393-27.726-104.398-62.35-152.686-102.137-3.725-3.075-7.42-6.17-11.052-9.315C180.258 811.473 133.416 752.2 110 715" transform="translate(-50 -717)"/>
        <path stroke-width="1.274" d="M1258 1337.83c-9.2 2.053-61.459-14.516-134.383-44.517-9.158-3.767-18.566-7.875-28.323-11.968-47.207-19.804-101.344-42.049-152.308-63.532-23.793-10.02-46.268-19.491-67.04-28.703-27.421-12.236-51.847-23.541-75.77-33.793-15.211-6.519-30.279-13.292-46.075-20.306-28.798-12.788-60.685-27.45-96.828-44.412-14.616-6.917-29.519-13.751-44.724-20.028-35.466-14.69-69.654-25.67-100.821-36.737-31.944-11.343-61.77-22.481-91.944-36.552-12.26-5.668-24.632-11.946-37.25-18.615-50.552-26.716-104.469-60.665-152.305-100.134-3.692-3.051-7.352-6.127-10.946-9.252C168.453 825.076 122.803 765.909 101 728" transform="translate(-50 -717)"/>
        <path stroke-width="1.232" d="M1245 1341.09c-10.726 4.74-64.117-9.205-137.429-37.675-9.194-3.57-18.629-7.497-28.395-11.429-47.274-19.033-101.13-40.957-151.603-62.604-23.56-10.095-45.788-19.764-66.28-29.268-27.055-12.625-51.06-24.477-74.553-35.342-14.949-6.913-29.743-14.077-45.278-21.448-28.308-13.43-59.758-28.618-95.529-45.653-14.477-6.952-29.272-13.764-44.406-19.96-35.283-14.497-69.413-24.95-100.684-35.377-32.015-10.673-62.034-21.04-92.358-34.444-12.323-5.4-24.756-11.426-37.418-17.865-50.756-25.814-104.63-59.223-152.056-98.53-3.663-3.041-7.29-6.109-10.85-9.227C157.71 838.06 113.21 778.768 93 740" transform="translate(-50 -717)"/>
        <path stroke-width="1.19" d="M1230 1344.767c-12.253 7.425-66.777-3.878-140.477-30.786-9.23-3.37-18.692-7.11-28.468-10.877-47.34-18.243-100.915-39.826-150.896-61.617-23.33-10.162-45.309-20.018-65.52-29.807-26.69-13-50.273-25.392-73.337-36.859-14.686-7.3-29.208-14.851-44.481-22.571-27.818-14.06-58.829-29.76-94.228-46.854-14.338-6.98-29.025-13.764-44.088-19.874-35.1-14.289-69.172-24.205-100.548-33.978-32.084-9.994-62.297-19.579-92.773-32.3-12.386-5.126-24.88-10.895-37.586-17.1-50.96-24.883-104.793-57.721-151.808-96.83-3.633-3.027-7.228-6.083-10.752-9.191C144.962 851.955 101.614 792.59 83 753" transform="translate(-50 -717)"/>
        <path stroke-width="1.148" d="M1216 1347.877c-13.77 10.102-69.379 1.449-143.403-23.87-9.257-3.166-18.739-6.717-28.515-10.315-47.367-17.436-100.612-38.657-150.058-60.57-23.079-10.218-44.79-20.252-64.703-30.316-26.3-13.366-49.442-26.284-72.057-38.341-14.41-7.683-28.646-15.611-43.645-23.673-27.304-14.677-57.849-30.875-92.846-48.01-14.186-7-28.753-13.749-43.731-19.767-34.888-14.067-68.87-23.438-100.324-32.55-32.127-9.305-62.506-18.096-93.106-30.126-12.44-4.845-24.984-10.35-37.723-16.314-51.12-23.93-104.863-56.166-151.426-95.04-3.601-3.01-7.16-6.05-10.647-9.147C134.163 865.753 92.003 806.374 75 766" transform="translate(-50 -717)"/>
        <path stroke-width="1.105" d="M1203 1350.436c-15.298 12.786-72.04 6.77-146.453-16.976-9.293-2.965-18.802-6.33-28.588-9.762-47.435-16.641-100.398-37.518-149.352-59.57-22.848-10.282-44.31-20.502-63.943-30.848-25.934-13.74-48.653-27.195-70.84-39.852-14.146-8.07-28.11-16.38-42.847-24.791-26.814-15.304-56.92-32.011-91.545-49.2-14.046-7.027-28.505-13.746-43.412-19.678-34.706-13.855-68.63-22.689-100.188-31.144-32.197-8.627-62.77-16.631-93.522-27.977-12.503-4.57-25.108-9.816-37.891-15.544-51.324-22.994-105.025-54.653-151.18-93.32-3.57-2.995-7.096-6.025-10.549-9.11C123.416 878.626 82.407 819.187 67 778" transform="translate(-50 -717)"/>
        <path stroke-width="1.063" d="M1190 1353.466c-16.827 15.482-74.704 12.101-149.506-10.089-9.33-2.767-18.866-5.947-28.66-9.217-47.504-15.859-100.185-36.408-148.647-58.617-22.616-10.355-43.83-20.77-63.182-31.408-25.569-14.126-47.864-28.13-69.622-41.397-13.883-8.466-27.575-17.166-42.049-25.932-26.324-15.944-55.99-33.176-90.243-50.434-13.907-7.06-28.258-13.754-43.095-19.603-34.524-13.656-68.388-21.96-100.051-29.765-32.268-7.954-63.035-15.178-93.938-25.847-12.567-4.298-25.234-9.29-38.06-14.786-51.53-22.078-105.189-53.186-150.931-91.678-3.54-2.984-7.035-6.004-10.453-9.082C112.668 891.585 72.81 832.038 59 790" transform="translate(-50 -717)"/>
        <path stroke-width="1.021" d="M1176 1356.035c-18.34 18.138-77.301 17.396-152.427-3.179-9.356-2.563-18.912-5.55-28.708-8.648-47.53-15.035-99.882-35.204-147.809-57.514-22.364-10.4-43.31-20.983-62.364-31.884-25.18-14.475-47.033-28.991-68.343-42.834-13.607-8.838-27.016-17.905-41.214-27.005-25.813-16.541-55.012-34.254-88.863-51.536-13.754-7.073-27.986-13.725-42.738-19.477-34.31-13.422-68.086-21.175-99.827-28.31-32.31-7.261-63.243-13.685-94.27-23.652-12.62-4.015-25.336-8.739-38.196-13.99-51.688-21.102-105.258-51.58-150.55-89.798-3.507-2.963-6.966-5.967-10.346-9.028C101.872 905.278 63.2 845.778 51 803" transform="translate(-50 -717)"/>
        <path stroke-width=".979" d="M1164 1359.121c-19.871 20.841-79.967 22.732-155.482 3.718-9.393-2.364-18.976-5.166-28.781-8.103-47.598-14.253-99.668-34.098-147.103-56.567-22.133-10.476-42.83-21.255-61.603-32.449-24.814-14.863-46.242-29.932-67.125-44.386-13.342-9.236-26.48-18.694-40.415-28.15-25.324-17.186-54.082-35.427-87.562-52.779-13.614-7.106-27.737-13.736-42.419-19.406-34.128-13.223-67.846-20.449-99.69-26.931-32.381-6.59-63.508-12.23-94.688-21.524-12.683-3.742-25.46-8.212-38.365-13.231-51.893-20.186-105.42-50.117-150.302-88.166-3.477-2.951-6.903-5.946-10.25-9C92.124 918.25 54.604 858.634 44 815" transform="translate(-50 -717)"/>
        <path stroke-width=".937" d="M1153 1362.804c-21.384 23.532-82.562 28.057-158.399 10.621-9.42-2.166-19.023-4.78-28.828-7.55-47.623-13.46-99.364-32.967-146.265-55.58-21.882-10.543-42.311-21.51-60.787-32.99-24.426-15.243-45.41-30.853-65.846-45.91-13.066-9.627-25.922-19.469-39.582-29.278-24.811-17.816-53.103-36.573-86.181-53.984-13.463-7.134-27.466-13.735-42.063-19.32-33.915-13.015-67.544-19.708-99.466-25.531-32.422-5.916-63.715-10.766-95.02-19.377-12.734-3.467-25.562-7.678-38.499-12.463-52.052-19.251-105.49-48.615-149.92-86.466-3.444-2.938-6.834-5.921-10.143-8.966C84.33 932.15 47.996 872.46 39 828" transform="translate(-50 -717)"/>
        <path stroke-width=".895" d="M1140 1365.126c-22.914 26.209-85.23 33.362-161.456 17.52-9.456-1.966-19.087-4.39-28.901-6.994-47.692-12.657-99.152-31.812-145.56-54.555-21.65-10.603-41.83-21.752-60.025-33.51-24.06-15.61-44.618-31.752-64.628-47.402-12.8-10.01-25.385-20.231-38.782-30.385-24.323-18.435-52.174-37.696-84.879-55.154-13.323-7.157-27.218-13.727-41.744-19.22-33.733-12.8-67.304-18.956-99.33-24.116-32.494-5.235-63.98-9.293-95.437-17.216-12.798-3.19-25.688-7.14-38.669-11.686-52.258-18.305-105.653-47.08-149.672-84.71-3.415-2.922-6.772-5.891-10.047-8.924C73.58 944.977 38.397 885.257 31 840" transform="translate(-50 -717)"/>
        <path stroke-width=".853" d="M1130 1370.078c-24.447 28.92-87.902 38.708-164.517 24.442-9.493-1.767-19.155-3.986-28.974-6.444-47.784-11.783-98.938-30.695-144.853-53.596-21.418-10.675-41.35-22.019-59.264-34.069-23.693-15.997-43.825-32.692-63.408-48.953-12.534-10.409-24.85-21.02-37.983-31.53-23.834-19.077-51.243-38.865-83.575-56.392-13.184-7.19-26.97-13.733-41.426-19.145-33.55-12.597-67.064-18.225-99.195-22.727-32.566-4.563-64.246-7.831-95.854-15.075-12.862-2.916-25.813-6.608-38.838-10.923-52.464-17.378-105.818-45.602-149.426-83.053-3.385-2.91-6.71-5.87-9.95-8.895C65.83 959.933 31.797 900.108 26 854" transform="translate(-50 -717)"/>
        <path stroke-width=".811" d="M1119 1371.804c-25.957 31.56-90.495 43.956-167.428 31.303-9.52-1.565-19.201-3.591-29.021-5.88-47.806-10.97-98.635-29.505-144.016-52.508-21.167-10.723-40.832-22.235-58.448-34.548-23.306-16.347-42.992-33.552-62.131-50.386-12.257-10.781-24.293-21.756-37.15-32.6-23.324-19.673-50.265-39.94-82.196-57.493-13.032-7.205-26.7-13.709-41.07-19.025-33.338-12.365-66.763-17.452-98.97-21.284-32.608-3.882-64.452-6.352-96.184-12.9-12.915-2.635-25.916-6.062-38.973-10.134-52.623-16.41-105.887-44.015-149.043-81.2-3.352-2.891-6.641-5.835-9.845-8.844C58.043 972.635 25.192 912.85 21 866" transform="translate(-50 -717)"/>
        <path stroke-width=".769" d="M1108 1377.22c-27.465 34.236-93.085 49.252-170.336 38.195-9.548-1.367-19.246-3.204-29.067-5.325-47.828-10.175-98.331-28.357-143.179-51.493-20.916-10.784-40.313-22.479-57.632-35.071-22.918-16.718-42.16-34.457-60.856-51.885-11.978-11.167-23.759-22.497-36.316-33.71-22.86-20.252-49.29-41.069-80.82-58.67-12.88-7.23-26.426-13.702-40.713-18.929-33.124-12.152-66.463-16.705-98.744-19.874-32.651-3.206-64.659-4.882-96.514-10.744-12.967-2.359-26.025-5.5-39.107-9.36-52.812-15.37-105.954-42.49-148.66-79.459-3.319-2.875-6.566-5.812-9.739-8.805C50.352 988.39 18.588 928.653 16 881" transform="translate(-50 -717)"/>
        <path stroke-width=".727" d="M1099 1381.327c-28.999 36.965-95.762 54.623-173.398 45.149-9.585-1.17-19.31-2.82-29.141-4.778-47.894-9.392-98.117-27.247-142.472-50.549-20.685-10.86-39.833-22.755-56.87-35.644-22.552-17.112-41.365-35.412-59.636-53.459-11.712-11.569-23.223-23.296-35.517-34.87-22.37-20.907-48.358-42.254-79.516-59.931-12.74-7.264-26.179-13.713-40.394-18.86-32.943-11.954-66.225-15.981-98.609-18.49-32.725-2.534-64.925-3.417-96.933-8.6-13.03-2.085-26.149-4.972-39.277-8.599-53.013-14.453-106.117-41.023-148.413-77.827-3.288-2.864-6.504-5.792-9.642-8.778C43.594 1002.393 12.987 942.523 12 894" transform="translate(-50 -717)"/>
        <path stroke-width=".684" d="M1090 1386.324c-30.505 39.61-98.35 59.867-176.3 52.001-9.612-.97-19.355-2.429-29.186-4.218-47.916-8.588-97.813-26.076-141.634-49.49-20.434-10.912-39.315-22.98-56.056-36.138-22.164-17.467-40.53-36.284-58.36-54.91-11.433-11.945-22.665-24.044-34.684-35.952-21.858-21.514-47.383-43.345-78.138-61.056-12.59-7.282-25.908-13.695-40.039-18.747-32.729-11.729-65.925-15.222-98.381-17.063-32.769-1.859-65.13-1.946-97.261-6.438-13.082-1.807-26.25-4.432-39.41-7.817-53.166-13.502-106.184-39.463-148.028-76.018-3.257-2.848-6.436-5.76-9.536-8.733C37.817 1018.15 8.395 958.285 9 909" transform="translate(-50 -717)"/>
        <path stroke-width=".642" d="M1082 1391.048c-32.036 42.313-101.022 65.198-179.346 58.928-9.649-.772-19.416-2.041-29.257-3.665-47.976-7.797-97.59-24.944-140.912-48.506-20.2-10.981-38.83-23.24-55.288-36.686-21.795-17.849-39.73-37.212-57.133-56.444-11.165-12.339-22.126-24.827-33.882-37.086-21.365-22.155-46.445-44.501-76.825-62.274-12.448-7.31-25.657-13.696-39.716-18.663-32.543-11.523-65.68-14.486-98.236-15.663-32.839-1.186-65.39-.477-97.67-4.286-13.144-1.531-26.37-3.898-39.575-7.048-53.362-12.573-106.338-37.963-147.767-74.326-3.225-2.832-6.372-5.734-9.438-8.697C32.167 1033.07 3.905 973.12 6.122 923" transform="translate(-50 -717)"/>
        <path stroke-width=".6" d="M1074 1397.611c-33.564 45.006-103.684 70.51-182.373 65.842-9.684-.574-19.475-1.653-29.324-3.11-48.032-7.003-97.355-23.804-140.176-47.507-19.963-11.045-38.34-23.491-54.513-37.22-21.423-18.226-38.885-38.159-55.9-57.963-10.868-12.746-21.584-25.601-33.073-38.209-20.87-22.788-45.504-45.643-75.505-63.47-12.304-7.339-25.403-13.694-39.387-18.574-32.354-11.312-65.429-13.746-98.08-14.256-32.907-.514-65.641.992-98.067-2.132-13.206-1.255-26.49-3.363-39.737-6.276-53.553-11.638-106.48-36.45-147.488-72.607-3.195-2.819-6.31-5.708-9.34-8.662C26.636 1049.955-.46 989.94 3.357 939" transform="translate(-50 -717)"/>
        <path stroke-width=".558" d="M1068 1403.037c-35.088 47.684-106.337 75.798-185.381 72.736-9.72-.377-19.533-1.265-29.388-2.556-48.082-6.207-97.11-22.656-139.423-46.492-19.725-11.107-37.847-23.736-53.732-37.746-21.05-18.595-38.08-39.056-54.66-59.461-10.6-13.13-21.04-26.37-32.261-39.321-20.373-23.414-44.557-46.772-74.175-64.65-12.16-7.362-25.147-13.686-39.056-18.477-32.16-11.098-65.17-13.003-97.912-12.846-32.972.158-65.886 2.462-98.454.024-13.266-.979-26.606-2.828-39.895-5.502-53.737-10.7-106.61-34.925-147.193-70.866-3.164-2.804-6.244-5.68-9.239-8.623-44.01-43.45-69.94-103.514-64.52-155.257" transform="translate(-50 -717)"/>
        <path stroke-width=".516" d="M1061 1411.343c-36.61 50.35-108.981 81.063-188.369 79.607-9.753-.178-19.588-.877-29.449-2-48.127-5.41-96.854-21.502-138.655-45.465-19.484-11.166-37.348-23.975-52.945-38.26-20.673-18.96-37.27-39.944-53.414-60.944-10.33-13.508-20.493-27.13-31.447-40.422-19.873-24.033-43.604-47.886-72.836-65.81-12.016-7.384-24.888-13.675-38.72-18.377-31.964-10.88-64.907-12.317-97.734-11.431-33.036.768-66.124 3.93-98.83 2.178-13.324-.702-26.72-2.291-40.048-4.727-53.915-9.76-106.728-33.391-146.882-69.108-3.132-2.787-6.18-5.65-9.138-8.58C18.92 1084.626-5.84 1024.531 1.182 972" transform="translate(-50 -717)"/>
        <path stroke-width=".474" d="M1056 1417.55c-38.126 52.997-111.615 86.163-191.336 86.45-9.787.002-19.641-.488-29.507-1.444-48.167-4.612-96.588-20.345-137.873-44.428-19.241-11.222-36.846-24.207-52.153-38.764-20.294-19.321-36.458-40.82-52.163-62.41-10.059-13.882-19.944-27.882-30.628-41.51-19.371-24.647-42.648-48.989-71.49-66.953-11.87-7.406-24.627-13.66-38.38-18.272-31.764-10.661-64.637-11.554-97.546-10.017-33.096 1.453-66.355 5.395-99.197 4.33-13.38-.425-26.828-1.755-40.195-3.951-54.089-8.818-106.836-31.851-146.556-67.333-3.1-2.771-6.114-5.62-9.036-8.538C16.726 1101.419-6.86 1041.308 1.763 988" transform="translate(-50 -717)"/>
        <path stroke-width=".432" d="M1053 1426.492c-39.676 55.74-114.349 91.594-194.468 93.446-9.828.205-19.71-.1-29.59-.89-48.247-3.823-96.403-19.222-137.206-43.468-19.015-11.297-36.376-24.48-51.404-39.334-19.933-19.715-35.676-41.769-50.955-63.984-9.797-14.282-19.413-28.683-29.836-42.673-18.886-25.302-41.727-50.175-70.205-68.21-11.733-7.44-24.386-13.671-38.072-18.2-31.59-10.458-64.422-10.81-97.44-8.617-33.184 2.14-66.642 6.87-99.647 6.49-13.449-.149-26.961-1.222-40.378-3.182-54.308-7.891-107.034-30.365-146.354-65.674-3.072-2.76-6.053-5.598-8.941-8.509-42.85-43.28-65.282-103.512-55.051-157.687" transform="translate(-50 -717)"/>
        <path stroke-width=".39" d="M1048 1434.327c-41.185 58.474-116.963 97.015-197.397 100.436-9.859.407-19.759.287-29.64-.336-48.279-3.03-96.119-18.093-136.398-42.496-18.768-11.37-35.866-24.75-50.602-39.898-19.55-20.106-34.854-42.709-49.693-65.548-9.524-14.677-18.86-29.48-29.011-43.826-18.38-25.954-40.762-51.354-68.846-69.457-11.584-7.471-24.12-13.678-37.723-18.121-31.385-10.255-64.14-10.064-97.233-7.215-33.237 2.828-66.859 8.346-99.992 8.652-13.504.128-27.068-.686-40.52-2.411-54.47-6.96-107.12-28.87-145.998-63.997-3.04-2.747-5.986-5.575-8.837-8.478C13.67 1138.37-7.586 1078.032 4.244 1023" transform="translate(-50 -717)"/>
        <path stroke-width=".348" d="M1045 1444.278c-42.689 61.081-119.564 102.226-200.304 107.206-80.74 4.979-163.278-26.335-215.059-81.59-31.48-33.592-51.358-74.341-76.613-111.854-25.254-37.513-58.588-73.673-104.852-88.557-62.464-20.095-130.947 3.021-197.344 4.999-68.462 2.039-138.362-20.338-186.283-63.818-47.922-43.48-71.736-108.16-57.412-167.664" transform="translate(-50 -717)"/>
    </g>
</svg>
